<svg width="50" height="50" viewBox="0 0 50 50" fill="none" xmlns="http://www.w3.org/2000/svg">
<path d="M24.9983 29.8989C27.7049 29.8989 29.899 27.7048 29.899 24.9982C29.899 22.2915 27.7049 20.0974 24.9983 20.0974C22.2917 20.0974 20.0975 22.2915 20.0975 24.9982C20.0975 27.7048 22.2917 29.8989 24.9983 29.8989Z" fill="#020203"/>
<path d="M36.4564 16.3312C36.1901 15.6464 35.8719 15.1553 35.3566 14.64C34.8413 14.1246 34.3536 13.8064 33.6654 13.5401C33.1466 13.3395 32.3684 13.1009 30.9366 13.0352C29.3872 12.966 28.9203 12.9487 24.9983 12.9487C21.0763 12.9487 20.6094 12.9626 19.06 13.0352C17.6282 13.1009 16.85 13.3395 16.3312 13.5401C15.6464 13.8064 15.1553 14.1246 14.64 14.64C14.1247 15.1553 13.8065 15.6429 13.5402 16.3312C13.3396 16.85 13.101 17.6281 13.0353 19.06C12.9661 20.6094 12.9488 21.0763 12.9488 24.9983C12.9488 28.9237 12.9626 29.3871 13.0353 30.9366C13.101 32.3684 13.3396 33.1466 13.5402 33.6653C13.8065 34.3501 14.1247 34.8412 14.64 35.3566C15.1553 35.8719 15.643 36.1901 16.3312 36.4564C16.85 36.657 17.6282 36.8956 19.06 36.9613C20.6094 37.0305 21.0729 37.0478 24.9983 37.0478C28.9238 37.0478 29.3872 37.034 30.9366 36.9613C32.3684 36.8956 33.1466 36.657 33.6654 36.4564C34.3502 36.1901 34.8413 35.8719 35.3566 35.3566C35.8719 34.8412 36.1901 34.3536 36.4564 33.6653C36.657 33.1466 36.8957 32.3684 36.9614 30.9366C37.0306 29.3871 37.0478 28.9202 37.0478 24.9983C37.0478 21.0728 37.034 20.6094 36.9614 19.06C36.8991 17.6281 36.6605 16.85 36.4564 16.3312ZM24.9983 32.5482C20.8308 32.5482 17.4518 29.1692 17.4518 25.0017C17.4518 20.8342 20.8308 17.4552 24.9983 17.4552C29.1658 17.4552 32.5448 20.8342 32.5448 25.0017C32.5483 29.1692 29.1693 32.5482 24.9983 32.5482ZM32.8457 18.9182C31.8704 18.9182 31.0819 18.1296 31.0819 17.1543C31.0819 16.179 31.8704 15.3905 32.8457 15.3905C33.821 15.3905 34.6096 16.179 34.6096 17.1543C34.6096 18.1262 33.821 18.9182 32.8457 18.9182Z" fill="#020203"/>
<path d="M24.9983 1.65308C12.1049 1.65308 1.6532 12.1048 1.6532 24.9982C1.6532 37.8916 12.1049 48.3433 24.9983 48.3433C37.8917 48.3433 48.3434 37.8916 48.3434 24.9982C48.3434 12.1048 37.8917 1.65308 24.9983 1.65308ZM39.6106 31.061C39.538 32.6242 39.2924 33.6929 38.9258 34.6302C38.5488 35.5951 38.0473 36.4148 37.2311 37.2345C36.4149 38.0507 35.5952 38.5556 34.6268 38.9291C33.693 39.2923 32.6244 39.5413 31.0576 39.6139C29.4909 39.6866 28.9894 39.7038 24.9983 39.7038C21.0071 39.7038 20.5057 39.6866 18.9389 39.6139C17.3757 39.5413 16.307 39.2957 15.3697 38.9291C14.4048 38.5522 13.5851 38.0507 12.7655 37.2345C11.9492 36.4182 11.4443 35.5986 11.0708 34.6302C10.7076 33.6964 10.4586 32.6277 10.386 31.061C10.3134 29.4943 10.2961 28.9928 10.2961 25.0016C10.2961 21.0105 10.3134 20.509 10.386 18.9423C10.4586 17.379 10.7042 16.3103 11.0708 15.3731C11.4478 14.4081 11.9492 13.5885 12.7655 12.7688C13.5817 11.9526 14.4013 11.4476 15.3697 11.0741C16.3035 10.711 17.3722 10.462 18.9389 10.3893C20.5057 10.3167 21.0071 10.2994 24.9983 10.2994C28.9894 10.2994 29.4909 10.3167 31.0576 10.3893C32.6209 10.462 33.6896 10.7075 34.6268 11.0741C35.5918 11.4511 36.4114 11.9526 37.2311 12.7688C38.0473 13.585 38.5523 14.4047 38.9258 15.3731C39.2889 16.3069 39.538 17.3756 39.6106 18.9423C39.6832 20.509 39.7005 21.0105 39.7005 25.0016C39.7005 28.9928 39.6798 29.4908 39.6106 31.061Z" fill="#020203"/>
</svg>
