<svg width="13" height="17" viewBox="0 0 13 17" fill="none" xmlns="http://www.w3.org/2000/svg">
<path d="M6.54021 0C6.52234 0 6.5134 0 6.49553 0C6.47766 0 6.46873 0 6.45086 0C2.89484 0.0539112 0 3.01004 0 6.59514C0 10.6744 4.03849 14.7986 6.08454 16.6316C6.08454 16.6316 6.08454 16.6316 6.09347 16.6406C6.23643 16.7754 6.37938 16.8922 6.50447 17C8.35395 15.4096 13 10.9799 13 6.60412C13 3.01004 10.0962 0.0539112 6.54021 0ZM6.55807 9.35359C4.68179 9.35359 3.15395 7.82611 3.15395 5.93023C3.15395 4.04334 4.67285 2.50687 6.55807 2.50687C8.43436 2.50687 9.9622 4.03436 9.9622 5.93023C9.9622 7.81712 8.43436 9.35359 6.55807 9.35359Z" fill="black"/>
</svg>
