<svg width="237" height="175" viewBox="0 0 237 175" xmlns="http://www.w3.org/2000/svg">
<path d="M231.2 84C230.5 81.5 228.6 79.4 226.2 78.5C214.1 74 202.6 72.8 192.2 75C191.4 72.6 189.5 70.6 187 69.8C186.5 69.6 183.6 68.6 179.8 67C176.7 65.7 173.2 66.4 170.8 68.7C167.5 72 165 78.6 163.3 84C161.3 82.5 158.6 82 156.1 82.7L138.8 87.7C137 88.2 135.4 89.4 134.4 90.9C132.7 89.7 130.6 89.3 128.5 89.6C123.5 90.4 120.7 90.8 117.9 91.2C114.8 91.6 111.7 92 105.9 93C103.1 93.5 100.7 95.4 99.6 98.1C99.1 99.4 98.9 100.8 99.1 102.2C97 101.8 94 101.5 89.9 101.9C87 102.2 84.3 102.9 81.9 104.1V92.3C81.9 89.7 80.7 87.3 78.6 85.8C76.6 84.3 73.9 83.8 71.4 84.5L52.8 89.8C49.8 90.7 47.6 93.2 47 96.1C45.9 95.3 44.7 94.7 43.3 94.5C42.6 94.6 41.9 94.7 41.1 94.7C40.7 94.7 40.3 94.7 39.9 94.6L17.2 98.3C14.4 98.8 12 100.7 10.9 103.4C9.80001 106.1 10.3 109.1 12 111.4C24.1 127.1 13.3 148.4 13.2 148.7C11.8 151.5 12 154.7 13.8 157.3C15.6 159.8 18.6 161.1 21.7 160.6C22.8 160.4 32.5 158.8 44.1 155.4C46.9 154.6 49 152.3 49.7 149.6C51.7 151.5 54.4 152.2 57 151.6L71.9 148.2C73.8 153.4 76.6 157.8 80.4 161.1C85.9 166 93.1 168.5 101.4 168.5C103.6 168.5 105.9 168.3 108.1 167.9L110.1 167.5C115.2 166.3 117 162.5 117 159.4V151.4C119.4 151.1 124.5 150.2 132.1 148C134 147.4 135.7 146.2 136.7 144.5C138.6 145.8 140.9 146.2 143.1 145.6L160.2 141.5H160.3C166.7 150 176.9 155 187.7 155C206.5 155 221.8 139.9 221.8 121.4C221.8 115.1 220 109.1 216.7 103.8C217.3 103.5 217.9 103.1 218.5 102.6C218.6 102.5 225.1 96.8 229.6 91.2C231.4 89.2 231.9 86.5 231.2 84ZM215.1 102.4C214.8 102.5 214.6 102.7 214.4 103C214.3 103.3 214.3 103.6 214.5 103.9C218.1 109.1 219.9 115.2 219.9 121.5C219.9 138.9 205.5 153.1 187.8 153.1C177.5 153.1 167.7 148.1 161.6 139.8C161.3 139.4 160.9 139.3 160.5 139.4C160.3 139.5 160.1 139.5 159.9 139.6L142.8 143.7C140.9 144.1 139 143.7 137.5 142.5L137.4 142.4C137.3 142.3 137.3 142.2 137.2 142.2C137 142 136.6 141.9 136.3 142C136 142.1 135.7 142.3 135.6 142.6C134.9 144.3 133.4 145.6 131.7 146.2C123.1 148.7 117.9 149.5 116 149.6C115.5 149.7 115.1 150.1 115.1 150.6V159.5C115.1 161 114.6 164.6 109.8 165.7L107.9 166.1C105.8 166.4 103.7 166.6 101.6 166.6C93.8 166.6 87 164.2 81.9 159.7C78.2 156.4 75.5 152.1 73.7 146.8C73.6 146.4 73.2 146.1 72.8 146.1C72.7 146.1 72.6 146.1 72.6 146.1L56.9 149.7C54.8 150.2 52.5 149.4 51 147.7C50.7 147.4 50.4 147 50.2 146.5C50 146.1 49.5 145.9 49 146C48.5 146.1 48.2 146.6 48.3 147V147.2C48.3 147.3 48.3 147.4 48.3 147.6C48.3 150.3 46.5 152.8 43.9 153.5C32.4 156.9 22.8 158.5 21.7 158.6C19.4 159 17.1 158 15.7 156.1C14.3 154.2 14.2 151.7 15.2 149.6C15.3 149.4 26.7 127 13.8 110.2C12.5 108.5 12.2 106.2 13 104.2C13.8 102.2 15.6 100.7 17.7 100.4L41.2 96.5C43 96.2 44.8 96.7 46.2 97.9C46.5 98.2 46.9 98.6 47.2 99C47.5 99.4 47.9 99.5 48.4 99.4C48.8 99.2 49.1 98.8 49 98.4V98.2C49 98 49 97.8 49 97.6C49 94.9 50.8 92.4 53.5 91.7L72.1 86.4C74 85.9 76 86.2 77.5 87.4C79 88.6 80 90.4 80 92.3V105.8C80 106.2 80.2 106.5 80.5 106.7C80.8 106.9 81.2 106.9 81.5 106.7C84 105.3 87 104.4 90.2 104C95.1 103.5 98.2 104.1 100.3 104.5C100.7 104.6 101 104.4 101.2 104.2C101.4 103.9 101.5 103.6 101.4 103.2C100.9 101.8 100.9 100.3 101.5 98.9C102.3 96.9 104.1 95.4 106.2 95.1C112 94.2 115.2 93.7 118.2 93.3C120.9 92.9 123.8 92.5 128.8 91.7C130.6 91.4 132.5 91.9 133.8 93.1C133.8 93.1 133.9 93.2 134 93.3C134.2 93.5 134.6 93.6 134.9 93.5C135.2 93.4 135.5 93.2 135.6 93C136.4 91.4 137.8 90.2 139.4 89.7L156.7 84.7C158.6 84.2 160.6 84.5 162.1 85.7C162.4 85.9 162.7 86.2 163 86.6C163.2 86.9 163.6 87 164 86.9C164.4 86.8 164.6 86.5 164.7 86.2C166.3 80.7 168.8 73.5 172.1 70.2C173.9 68.4 176.6 67.9 178.9 68.9C182.8 70.5 185.7 71.6 186.2 71.7C188.3 72.4 189.9 74.2 190.3 76.4C190.4 76.7 190.5 76.9 190.7 77.1C190.9 77.2 191.2 77.3 191.5 77.2C201.8 74.8 213.2 75.9 225.3 80.4C227.2 81.1 228.6 82.6 229.1 84.5C229.6 86.4 229.2 88.5 228 90C223.6 95.5 217.2 101.1 217.2 101.2C216.7 101.8 215.9 102.2 215.1 102.4Z" fill="white"/>
<path d="M157.5 132.8V92L142.3 96.4C142.3 98.9 142.4 107.1 142.4 112.7C142.4 115.7 139.7 125.4 135.9 125.7C135 125.8 134.2 125.4 133.3 124.6C130.8 122.3 128.8 116.8 128.8 113.8C128.8 108.1 128.9 101.6 129 99C124.7 99.7 122.1 100.1 119.4 100.4C116.7 100.8 114 101.1 109.3 101.9C109.7 102.3 110.2 102.8 110.6 103.2C113.3 105.8 116.4 108.8 116.4 114.6C116.4 120.9 116.1 137.8 116 142.3C117.9 142.1 122.2 141.4 129.1 139.4C129 136.2 129 127.8 129 127.4C129 127 129.2 126.6 129.6 126.5C130 126.3 130.4 126.4 130.7 126.7L136.5 131.9L140.8 126C141.1 125.7 141.5 125.5 141.9 125.6C142.3 125.7 142.6 126.1 142.6 126.6V136.5L157.5 132.8Z" fill="white"/>
<path d="M72.8 138.6V93.6L56.3 98.3C56.6 101.6 57.6 114 57.6 122.6C57.6 122.9 57.5 123.2 57.2 123.4C57 123.6 56.7 123.7 56.4 123.6C43.5 120.8 41.6 107.8 41.3 103.7C38.3 104.2 29.6 105.6 20.5 107.1C32.5 124.3 25.1 145 22.4 151.1C25.7 150.5 32.8 149.1 41 146.7C39.6 134.8 41.2 123.2 41.2 123.1C41.3 122.6 41.7 122.2 42.2 122.2C42.5 122.2 48.5 122.2 53.6 129.9C57.2 135.3 57.2 139.9 56.9 142.2L72.8 138.6Z" fill="white"/>
<path d="M93.7 111C92.9 111 92 111 90.9 111.2C82.1 112.1 78.4 117.7 78.4 129.9C78.4 142 81.5 150.5 87.8 155.2C95.3 160.9 105.3 159.3 108 158.7V144.9C106.1 146.5 102.9 148.6 99.7 148.6C96.9 148.6 94.1 148.4 92.3 146.6C91 145.2 90.3 143.1 90.4 140C90.5 138.1 91.1 136.9 92.3 136.4C94.5 135.5 97.7 137.6 99.7 139.2V130.5C97.8 131.4 94.6 132.6 92.3 131.3C90.9 130.5 90.2 128.9 90.2 126.6C90.2 121.5 93 118.6 97.9 118.6C102 118.6 105.6 122.6 107.7 125.6V109.5C104.1 112.4 102.1 112.2 98.9 111.6C97.6 111.3 96 111 93.7 111Z" fill="white"/>
<path d="M175.5 94.1C182.1 91.5 188.2 90.5 193.5 90.5C203.8 90.5 211 94 213.1 95.2C214.5 93.9 218.5 90.2 221.6 86.5C195.5 77.4 181 88.3 175.5 94.1Z" fill="white"/>
<path d="M176.9 75.7C175 78 173.2 83.3 171.9 87.5C175.3 83.8 180 79.7 182.4 77.8C181.1 77.4 179.2 76.7 176.9 75.7Z" fill="white"/>
<path d="M187.9 145.9C201.7 145.9 212.8 135 212.8 121.5C212.8 108.1 201.6 97.1 187.9 97.1C174.2 97.1 163 108 163 121.5C163 135 174.1 145.9 187.9 145.9ZM179.6 126.2L183.3 104.4C183.4 103.9 183.8 103.6 184.3 103.6C184.5 103.6 189.2 103.6 194.5 106.5C199.9 109.4 202.3 113.2 202.4 113.3C202.5 113.5 202.6 113.8 202.5 114.1C202.4 114.4 202.3 114.6 202 114.7L181 127.2C180.8 127.3 180.7 127.3 180.5 127.3C180.3 127.3 180.1 127.2 179.9 127.1C179.7 127 179.5 126.6 179.6 126.2Z" fill="white"/>
<path d="M33.4 69C31.6 72.1 30.2 74.4 29.9 74.8C29.5 75.7 26 84.4 33.4 89.9C38.8 93.8 42.9 93 45 92.1C42.2 90.5 37.2 86.5 36.5 77.5C35.7 65.3 48.7 58 54.3 57C54.7 56.9 55.1 56.8 55.6 56.8C60.5 55.8 67.9 54.4 81.1 59.8C84.5 61.2 87.6 62.6 90.6 64.1C90.1 64.6 89.6 65.1 89.1 65.6C86.4 68.4 84.1 71.9 82.5 76.2C82.4 76.5 82.4 76.9 82.6 77.2C82.8 77.5 83.1 77.6 83.5 77.6C87.9 77 96 75 103.7 72.9C104.7 72.6 105.6 72.4 106.6 72.1C110.2 73.9 113.8 75.5 117.7 77C126.6 80.4 131.4 79.8 135.2 79.3C136.7 79.1 138.1 78.9 139.5 79C140.9 79.1 142.6 79.3 144.4 79.5C148.9 80 154 80.6 157.7 80C160.6 79.5 161.9 78.3 162.5 77.5C154.3 75.3 147.9 70.4 144.4 66.5C144.7 66.5 144.9 66.5 144.9 66.5C145.9 66.5 146.7 66.6 147.4 66.7C150 67 151 67.5 152.4 68.3C153 68.7 153.8 69 154.7 69.5C158.7 71.3 161.3 71.6 164.7 70.7C167 70.1 168.4 68.8 168.6 67.4C168.7 66.7 168.5 65.3 166.5 64.2C165.4 63.6 164.4 63.2 163.7 63C162.3 62.5 161.9 62.3 161.6 61.5C161.5 61.2 161.7 60.5 162 59.8C162.8 57.6 164.1 53.8 161 47.6C157 39.5 154.5 38.3 150.2 36.5L149.2 36.1C147.1 35.2 145 34.4 143 33.6C138.5 31.9 134.3 30.3 133.2 28C132.4 26.3 132 24.6 131.7 22.8C131.3 20.7 130.9 18.8 129.8 17.3C129.5 16.9 129.1 16.3 128.7 15.6C127.1 12.8 124.6 8.5 117.3 6.6C117 6.5 116.6 6.6 116.4 6.9C116.1 7.1 116 7.5 116.1 7.8C116.7 10.4 117.9 15.9 116.1 18.1C115.2 19.2 108.3 19 103.3 18.9C98.7 18.8 94 18.7 90.8 19.2C83.6 20.3 67.7 25.2 60.5 29.8C55.8 32.8 44.3 40.5 39.2 47.2C37.4 49.5 35.8 52.4 34.2 55.2C31.7 59.5 29.2 64 26.2 66.4C23 69 16.9 70.3 12.7 69.2C11.2 68.8 9.3 67.9 8.5 66C8.4 65.6 8 65.4 7.6 65.4C7.2 65.4 6.8 65.6 6.7 66L6.5 66.4C5.4 68.6 3.3 73.2 7.7 77.8C10.1 80.3 14.2 82.9 18.6 82.9C18.9 82.9 19.1 82.9 19.4 82.9C22.4 82.7 25.1 81.2 27.2 78.5C27.3 78.4 27.3 78.3 27.4 78.2C29.5 74.8 31.5 71.9 33.4 69ZM19 80.7C15 81 11.1 78.5 9 76.3C6.1 73.3 6.7 70.6 7.6 68.4C8.6 69.6 10.1 70.5 12.1 71C16.9 72.3 23.6 70.9 27.3 67.9C30.5 65.2 33.2 60.6 35.7 56.2C37.3 53.3 38.9 50.6 40.6 48.4C45.7 41.8 57.8 33.7 61.4 31.4C67.9 27.2 83.1 22.2 90.9 21.1C93.9 20.7 98.6 20.8 103 20.9C111 21.1 116 21.1 117.4 19.4C119.5 16.9 118.9 12.3 118.2 9.1C123.5 10.9 125.4 14.2 126.8 16.7C127.2 17.5 127.6 18.1 128.1 18.7C129 19.8 129.3 21.4 129.6 23.3C129.9 25.1 130.3 27.1 131.2 29C132.7 32.1 137.1 33.7 142.1 35.6C144.1 36.4 146.2 37.1 148.2 38L149.2 38.4C153.3 40.2 155.3 41.1 159 48.6C161.7 54.1 160.6 57.1 159.9 59.3C159.5 60.4 159.2 61.3 159.5 62.2C160 64.1 161.4 64.6 162.8 65.1C163.5 65.4 164.4 65.7 165.3 66.2C166 66.6 166.5 67.1 166.4 67.4C166.3 67.9 165.5 68.6 164 69C161.2 69.8 159 69.5 155.4 67.9C154.5 67.5 153.8 67.1 153.2 66.8C151.2 65.7 149.9 65 144.9 64.8C144.6 64.8 138.2 64.2 131.1 65.1L129.4 65.3C123.4 66 119.1 66.5 110.3 69.1C103.4 71.1 91.4 74.4 85 75.4C90.3 63.4 102.3 58.6 107 56.7C107.4 56.6 107.6 56.2 107.6 55.8C107.6 55.4 107.4 55 107 54.9C83.6 43.9 67.4 46 56.4 48C66.1 43.4 80.4 39.5 91.2 42.9C95.8 44.3 99.9 45.9 103.6 47.3C110.5 49.9 115.9 52 121 52.1C128.8 52.2 134.6 48.6 134.9 48.4C135.2 48.2 135.4 47.8 135.4 47.4C135.4 47 135.1 46.7 134.7 46.6C134.5 46.5 118.1 40.9 113 39C108 37.1 94.8 33.9 87.7 33.5C80.9 33.2 71.6 34.9 62.4 38.3C53.1 41.5 44 48.5 39.3 55.9C38.2 57.7 37.1 59.4 36 61.1C32.7 66.3 29.6 71.3 25.5 76.8C23.8 79.2 21.6 80.5 19 80.7Z" fill="white"/>
<path d="M129.8 56.7C147.9 59.5 149.4 52.6 149.4 52.6L139.1 50.1C139.2 50.1 136.7 53.3 129.8 56.7Z" fill="white"/>
</svg>
