<svg width="13" height="13" viewBox="0 0 13 13" fill="none" xmlns="http://www.w3.org/2000/svg">
<path d="M10.7191 8.29596C10.7191 8.29596 10.2019 7.67986 9.6347 8.10447C9.20927 8.42085 8.45017 9.12853 8.26665 9.29504C8.26665 9.29504 6.99037 8.62066 6.23961 7.99624C5.12182 7.08041 4.37941 5.94812 3.98735 5.30704L3.68704 4.75754C3.79549 4.64931 4.57127 3.80842 4.91328 3.35883C5.33871 2.79268 4.72142 2.27649 4.72142 2.27649C4.72142 2.27649 2.98634 0.544749 2.59428 0.203396C2.19387 -0.137957 1.74342 0.0535334 1.74342 0.0535334C0.909248 0.586377 0.0500504 1.05262 0 3.29222C0 5.3903 1.59327 7.54665 3.31167 9.22011C5.0384 11.11 7.40746 13.0083 9.70143 13C11.9454 12.95 12.4125 12.0925 12.9464 11.2599C12.9464 11.2599 13.1382 10.8103 12.7962 10.4107C12.4542 10.0277 10.7191 8.29596 10.7191 8.29596Z" fill="black"/>
</svg>
