<svg width="49" height="50" viewBox="0 0 49 50" fill="none" xmlns="http://www.w3.org/2000/svg">
<path d="M21.4512 29.6708L29.3756 25.0018L21.4512 20.3328V29.6708Z" fill="black"/>
<path d="M24.5017 1.65674C11.8661 1.65674 1.62347 12.1084 1.62347 25.0018C1.62347 37.8952 11.8661 48.3469 24.5017 48.3469C37.1372 48.3469 47.3798 37.8952 47.3798 25.0018C47.3798 12.1084 37.1338 1.65674 24.5017 1.65674ZM39.1132 32.493C38.7641 33.8315 37.7303 34.8863 36.4153 35.246C34.0359 35.8962 24.4983 35.8962 24.4983 35.8962C24.4983 35.8962 14.9606 35.8962 12.5813 35.246C11.2696 34.8863 10.2358 33.8349 9.88335 32.493C9.24615 30.0651 9.24615 25.0018 9.24615 25.0018C9.24615 25.0018 9.24615 19.9385 9.88335 17.5106C10.2325 16.1722 11.2662 15.1173 12.5813 14.7577C14.9606 14.1075 24.4983 14.1075 24.4983 14.1075C24.4983 14.1075 34.0359 14.1075 36.4153 14.7577C37.727 15.1173 38.7607 16.1687 39.1132 17.5106C39.7504 19.9385 39.7504 25.0018 39.7504 25.0018C39.7504 25.0018 39.7538 30.0651 39.1132 32.493Z" fill="black"/>
</svg>
